<?xml version="1.0" encoding="UTF-8"?>
<svg id="Layer_1" xmlns="http://www.w3.org/2000/svg" version="1.1" viewBox="0 0 648 216">
  <!-- Generator: Adobe Illustrator 30.1.0, SVG Export Plug-In . SVG Version: 2.1.1 Build 136)  -->
  <defs>
    <style>
      .st0 {
        fill: #dd7587;
      }

      .st1 {
        fill: #da7f86;
      }

      .st2 {
        fill: #d61d60;
      }

      .st3 {
        fill: #a7355e;
      }

      .st4 {
        fill: #310314;
      }

      .st5 {
        fill: #fefefe;
      }

      .st6 {
        fill: #d71d61;
      }
    </style>
  </defs>
  <path class="st4" d="M78.72,0h569.28v39.85l-.1.5c-54.78,8.31-113.23,16.53-170.62,16.61-33.67.05-67.74-2.84-100.4-11.28-24.63-6.58-49.4-13.3-74.31-20.15-43.08-10.58-87.8-13.19-131.71-7.33-13.11,1.75-30.64,6.45-41.33,14.34-5.2,3.84-9.63,9.61-9.63,16.25,0,8.24,7.41,15.45,14.17,19.44,16.66,9.82,35.75,13.71,54.7,16.85,2.87.48,3.41,1,1.61,1.56-21.67,9.22-45.11,22.74-56.21,44.17-4.58,8.85-6.55,18.6-3.02,28.11,3.54,9.52,10.98,16.77,19.75,21.74,20.79,11.79,45.72,15.2,69.49,15.71,52.96,1.13,105.69-4.03,157.7-13.48,39.77-7.22,78.1-17.19,114.19-28.66,44.45-14.13,87.62-28.46,132.17-44.74,7.09-2.79,14.2-5.52,21.32-8.19l2.24-.55v115.25H114.21c-.22-.44-.45-.9-.49-1.4-.52-6.69-1.07-12.29-2.72-18.88-10.87-43.4-40.91-75.37-79.29-97.7-9.61-5.6-19.16-9.9-29.26-14.42-.88-.39-1.68-.95-2.45-1.51v-20.64l1.06-.43c24.07-3.46,50.34-10.11,66.69-29.13,7.38-8.58,11.27-19.34,10.58-30.66l.39-1.22Z"/>
  <path class="st2" d="M648,39.85v60.9c-14.82,5.97-29.71,11.77-44.95,17.03l-50.13,17.29-60.5,19.62-25.16,7.72-10.01,2.83c-50.08,14.13-107.61,24.53-159.51,29.03-24.8,2.15-49.56,3.02-74.42,2.65-9.86-.15-19.52-.89-29.25-2.18-16.96-2.25-32.77-6.58-47.18-15.97-9.67-6.3-18.03-17.62-18.06-29.48s6.03-22.53,13.53-31.16c6.26-7.19,13.39-13.3,21.47-18.37,8.7-5.46,17.71-9.98,27.33-13.79-9.97-1.61-19.37-3.35-28.9-5.82-9.47-2.45-18.44-5.93-26.97-10.62-4.83-2.77-8.98-6.17-12.32-10.56-3.88-5.1-4.7-11.49-1.9-17.29,1.63-3.37,3.98-6.11,6.9-8.51,10.91-8.98,31.07-13.84,44.94-15.74,11.48-1.57,22.82-2.49,34.46-2.73,33.1-.68,69.33,3.14,101.25,11.94l34.62,9.54,33.76,9.04c32.97,8.83,72.95,11.74,107.09,11.2,37.16-.59,84.31-4.87,121.18-10.29l42.73-6.28Z"/>
  <path class="st1" d="M114.21,216h-36.51c-.28-.58-.54-1.18-.64-1.82-1.05-7.38-1.99-13.88-4.23-21.08-4.24-13.64-10.96-25.88-20.73-36.28-7.38-7.86-16.99-15.38-27.11-19.13-8.27-3.06-14.99-3.23-23.62-3.36-.23,0-.45-.06-.68-.13s-.47-.17-.69-.28v-51.84c18.94,7.56,36.94,17.38,53.38,29.67,19.11,14.28,35.77,32.29,46.56,53.69,7.52,14.91,14.37,33.92,14.27,50.57Z"/>
  <path class="st3" d="M77.7,216h-37.15l-.31-.66c1.48-3.93,2.16-8.11,1.9-12.31-1.28-21.08-22.43-33.47-41.97-34.23l-.18-.56v-34.32c12.64-.72,24.41,1.41,35.34,8.39,13.98,8.91,25.28,21.58,32.44,36.59,5.57,11.67,8.96,24.35,9.92,37.11Z"/>
  <path class="st1" d="M78.72,0c.96,10.93-2.29,21.75-9.18,30.46-6.36,8.04-14.47,14.29-23.82,18.63-14.45,6.71-29.97,10.87-45.72,12.35v-19.2l1.11-.57c14.2-1.76,29.2-7.76,40.94-15.96,8.95-6.24,16.27-14.98,19.76-25.3l.59-.41h16.32Z"/>
  <path class="st0" d="M40.55,216H0v-47.76c.49.18,1.04.25,1.7.29,7.78.49,15.11,2.61,21.97,6.29,2.44,1.63,4.86,2.97,7.04,4.95,5.11,4.62,7.94,8.67,10.26,15.17.74,2.09,1.07,4.25,1.51,6.42.32,1.59.01,3.21.06,4.8.14,4.22-.97,6.2-1.99,9.84Z"/>
  <path class="st3" d="M62.4,0c-.24,1.08-.58,2.09-1.08,3.24-4.25,9.71-11.18,17.82-20.11,23.61-11.44,7.43-27.68,14.52-41.21,15.39v-24.24l.72-.71C10.11,14.78,19.95,9.31,24.52.45l.68-.45h37.2Z"/>
  <path class="st0" d="M25.2,0c-.86,2.53-2.54,4.79-4.58,6.71C13.68,13.22,9.08,15.42,0,18V0h25.2Z"/>
  <path d="M421.54,117.13c1.01,3.2-.03,6.32-2.14,8.75s-4.86,3.54-7.99,4.03c-2.99.33-5.87.38-8.95.38l-19.17.03.2-20.41-.21-21.86,22.78.09c4.26.02,8.25.98,11.69,3.35,5.44,3.38,7.44,10.18,4.55,15.87-1.03,2.02-2.59,3.47-4.81,4.6,1.74,1.45,3.34,2.9,4.05,5.16Z"/>
  <path d="M376.86,101.76l-17.32-.23-.04,26.87,18.7-.22c.72,0,1.23.57,1.22,1.07,0,.62-.44,1.05-1.24,1.05l-37.36.03.18-23.28-.21-18.98,34.76.02c.82,0,1.23.46,1.24,1.07.01.65-.46,1.04-1.21,1.09l-15.82-.25-.25,9.6,17.27-.24c.82.04,1.44.32,1.46,1.07.01.66-.45,1.13-1.38,1.33Z"/>
  <path d="M429.2,116.46l-.35-28.38h18.99s-.17,41.36-.17,41.36c6.64.56,16.17-.21,18.35-8.03.74-2.28,1.01-4.53,1.15-6.97.49-8.58.38-17.03.13-25.61-.02-.84.75-1.19,1.29-1.22.8-.04,1.34.53,1.32,1.45l-.41,22.53c-.06,3.25-.25,6.28-1.02,9.36-1.24,4.92-4.82,8.34-9.73,9.55-6.12,1.51-15.48,1.46-21.45-.64-2.99-1.05-5.36-3.03-6.61-5.94-1.11-2.32-1.45-4.7-1.5-7.45Z"/>
  <path d="M308.63,88.05l14.1,24.59,5.14-9.45,7.69-14.76c.48-.7,1.17-1.01,1.88-.67.64.3.91,1.02.52,1.86l-24.4,44.08-26.58-45.57,21.65-.07Z"/>
  <path d="M237.69,128.15c.88-.01,1.33.54,1.34,1.09,0,.6-.43,1.06-1.23,1.06l-37.4.03.29-28.07-.3-14.19h19.22s-.24,18.73-.24,18.73l.24,21.61,18.09-.26Z"/>
  <path d="M494.84,129.44c11.55,1.25,21.41-6.82,22.63-18.31l-17.73-.07c-.62,0-1.21-.26-1.26-.79-.04-.47.28-1.08.98-1.08h20.14c-.09,4.18-1.04,8.12-3.2,11.65-3.67,6-10.02,9.76-16.69,10.51-7.33.83-14.49-1.92-19.35-7.37s-6.53-12.2-5.23-18.93c1.68-8.67,8.54-15.33,16.63-17.29,9.22-2.23,18.3,1.25,23.72,8.71.42.58.32,1.36-.07,1.66-1.29.97-2.4-1.06-3.52-2.38-4.23-4.98-10.52-7.44-17.01-6.56l-.21,23.34.18,16.89Z"/>
  <path d="M273.21,129.15c-6.88,3.37-14.57,3.08-21.1-.57-12.06-6.76-15.15-22.59-6.3-33.37,4.41-5.36,11.21-8.36,18.24-8.08s13.3,3.59,17.29,9.14c8.06,11.21,4.29,26.78-8.14,32.88Z"/>
  <path class="st5" d="M316.08,81.43c0,.42-.24.57-.37.6-.26.06-.49-.12-.59-.47v-10.77s-10.09,0-10.09,0v11.28s-9.36,0-9.36,0v-18.96s9.36,0,9.36,0v6.72s10.08,0,10.08,0l.04-6.21c0-.27.21-.42.34-.46.18-.06.58.1.58.47v17.79Z"/>
  <path class="st5" d="M391.44,81.43c0,.42-.24.57-.38.6-.23.05-.5-.12-.58-.47v-10.77s-10.09,0-10.09,0v11.28s-9.36,0-9.36,0v-18.96s9.36,0,9.36,0v6.72s10.08,0,10.08,0l.04-6.22c0-.27.21-.42.34-.45.19-.06.58.1.58.47v17.79Z"/>
  <path class="st5" d="M412.89,69.33l-8.71.05-.03,11.73,9.33.04c.26,0,.41.23.45.35.06.21-.09.51-.46.57h-18.68s0-18.95,0-18.95h17.48c.29.11.43.22.47.37.06.24-.11.57-.46.57l-8.13.02v4.31s8.85.02,8.85.02c.26,0,.42.22.45.34.05.18-.13.57-.57.57Z"/>
  <path class="st5" d="M267.36,63.98c0-.4.15-.62.22-.74.09-.15.69-.1.7.2.06,4.23.13,8.38-.19,12.6-.23,3.07-2.06,5.39-5.07,6.03-3.43.72-6.97.68-10.38-.13-2.56-.61-4.16-2.59-4.4-5.22l-.09-13.61h9.36s.05,18.4.05,18.4c4.26.26,8.93-.14,9.49-5.27.44-4.04.26-8.04.3-12.26Z"/>
  <path class="st5" d="M234.65,79.73l-10.24-.06-1.9,2.65c-.19.27-.53.28-.77.15-.21-.11-.29-.42-.07-.77l12.71-19.78,12.32,20.12-10.55.05c-.59-.7-.94-1.35-1.49-2.36Z"/>
  <path class="st5" d="M333.36,82.05l-9.37.03v-18s-5.62.09-5.62.09c-.3,0-.59-.25-.61-.46-.02-.32.29-.6.73-.6h20.13c.38,0,.62.22.69.39.14.35-.21.66-.67.65l-5.28-.08v17.97Z"/>
  <path class="st5" d="M362.88,82.05l-9.37.03v-18s-5.62.09-5.62.09c-.3,0-.59-.25-.61-.46-.02-.32.29-.6.73-.6h20.13c.38,0,.62.22.69.4.12.32-.2.65-.67.65l-5.28-.08v17.97Z"/>
  <path class="st5" d="M292.1,73.49l-8.65-.07c-.33,0-.61-.13-.67-.34-.07-.23.11-.58.45-.58l9.82-.02c-.06,2.9-1.21,5.5-3.46,7.36-4.7,3.89-11.78,3.63-15.99-.81-3.59-3.79-3.5-9.45.21-13.08,4.8-4.7,12.75-4.36,17.08.75.23.27.21.61.11.77-.13.22-.69.32-.92.03-2.24-2.8-5.59-4.26-9.27-3.8l.07,17.84c2.59.3,5.06-.42,7.24-1.75,2.1-1.45,3.58-3.5,3.99-6.29Z"/>
  <path class="st5" d="M220.49,76.42c.21-.36.68-.38.85-.25.73.57-2.45,5.43-8.13,6.25-3.68.53-7.47-.62-10.07-3.27-3.55-3.62-3.68-9.1-.23-12.85,4.66-5.07,12.99-4.85,17.42.39.23.27.22.61.13.76-.14.24-.42.23-.75.1-2.22-2.85-5.75-4.23-9.44-3.87l-.02,17.81c4.11.58,8.12-1.38,10.25-5.06Z"/>
  <path class="st6" d="M407.06,110.41c.33,2.66,5.52,3,7.69,2.36,1.84.86,3.55,2.27,4.43,4.18,1.17,2.58.5,5.53-1.28,7.67-3.47,4.31-10.5,3.77-15.66,3.73l-.22-19.38.21-18.71c5.78-.1,11.66.25,15.95,4.45,3.31,3.08,4.25,7.91,2.17,11.93-2.44,4.72-7.93,5.25-12.24,2.93-.28-.15-.68-.11-.84,0-.21.14-.25.5-.21.85Z"/>
  <path class="st6" d="M260.9,129.49l-.24-20.76.22-19.55c5.9-.61,11.82,1.21,16.14,5.25,7.49,7.01,8.54,18.49,2.57,26.81-4.22,5.88-11.27,8.96-18.7,8.25Z"/>
  <polygon class="st6" points="234.06 78.7 224.9 78.65 229.64 71.21 234.06 78.7"/>
</svg>